<?xml version="1.0" encoding="UTF-8"?> <svg xmlns="http://www.w3.org/2000/svg" width="56" height="35" viewBox="0 0 56 35" fill="none"> <path d="M4.31786 18.5744C3.42339 17.5496 1.86769 17.4442 0.843122 18.3386C-0.181474 19.2331 -0.286941 20.7888 0.607528 21.8133L4.31786 18.5744ZM12.7824 32.0146L10.9272 33.634C11.3949 34.1699 12.0713 34.4772 12.7824 34.4772C13.4935 34.4772 14.1699 34.1699 14.6375 33.634L12.7824 32.0146ZM40.4368 4.08227C41.3313 3.05771 41.2259 1.502 40.2011 0.607528C39.1766 -0.286942 37.6209 -0.181474 36.7264 0.843122L40.4368 4.08227ZM23.8267 15.6192C22.9323 16.6437 23.038 18.1994 24.0625 19.0938C25.087 19.9883 26.6427 19.8829 27.5371 18.8581L23.8267 15.6192ZM21.0874 26.246C21.9818 25.2216 21.8764 23.6658 20.8518 22.7714C19.8272 21.877 18.2715 21.9824 17.377 23.0072L21.0874 26.246ZM0.607528 21.8133L10.9272 33.634L14.6375 30.3951L4.31786 18.5744L0.607528 21.8133ZM14.6375 33.634L21.0874 26.246L17.377 23.0072L10.9272 30.3951L14.6375 33.634ZM27.5371 18.8581L33.987 11.4701L30.2766 8.23109L23.8267 15.6192L27.5371 18.8581ZM33.987 11.4701L40.4368 4.08227L36.7264 0.843122L30.2766 8.23109L33.987 11.4701Z" fill="#D1DCE5"></path> <path d="M54.9999 2.66791L40.9273 17.4438M25.448 30.3728L26.8547 32.2198L33.891 24.8318" stroke="#98B0C3" stroke-width="2" stroke-linecap="round" stroke-linejoin="round"></path> </svg> 